<svg width="24" height="24" viewBox="0 0 24 24" fill="none" xmlns="http://www.w3.org/2000/svg">
<path d="M2.57143 1.5C1.15179 1.5 0 2.50781 0 3.75V20.25C0 21.4922 1.15179 22.5 2.57143 22.5H21.4286C22.8482 22.5 24 21.4922 24 20.25V3.75C24 2.50781 22.8482 1.5 21.4286 1.5H2.57143ZM7.86857 7.74534C8.9205 7.74534 9.85511 8.06358 10.5433 8.54086C11.1798 8.98392 11.4778 9.42713 11.7379 9.82491L9.92057 10.6194C9.79055 10.3585 9.63412 10.0856 9.23239 9.79055C8.79054 9.48342 8.34964 9.39286 7.97218 9.39286C6.49221 9.39286 5.71307 10.5972 5.71307 11.9376C5.71307 13.6988 6.73955 14.5729 7.97218 14.5729C9.16682 14.5729 9.64779 13.8458 9.95861 13.3806L11.7643 14.1872C11.426 14.6525 11.1014 15.1076 10.3741 15.5498C9.98507 15.7884 9.08963 16.2547 7.81682 16.2547C5.38854 16.2547 3.42857 14.7098 3.42857 11.9939C3.42857 9.62034 5.27223 7.74534 7.86857 7.74534ZM11.9123 7.99505H14.3533L16.2488 13.6987L18.1304 7.99509H20.5714L17.3904 16.016H15.0541L11.9123 7.99505Z" fill="#0F0F0F" fill-opacity="0.8"/>
</svg>
