<svg width="24" height="24" viewBox="0 0 24 24" fill="none" xmlns="http://www.w3.org/2000/svg">
<g clip-path="url(#clip0_41_437)">
<path d="M13.4829 4.89053e-05C13.3018 0.00606117 13.1236 0.0478571 12.9587 0.123029C12.7937 0.198201 12.6453 0.305264 12.5219 0.438049L7.11595 6.22605L3.26195 10.352C2.70065 10.9497 2.28666 11.6702 2.05295 12.456C2.00286 12.6249 1.96114 12.7961 1.92794 12.969C1.77811 13.7516 1.79926 14.5574 1.98995 15.331C2.0747 15.6801 2.19153 16.0205 2.33895 16.348C2.64466 17.0285 3.07584 17.6453 3.60994 18.166L7.88695 22.359L7.92595 22.397C10.1739 24.562 13.7779 24.53 15.9889 22.323L18.3849 19.931C18.9249 19.391 18.9249 18.517 18.3879 17.976C18.2601 17.8476 18.1082 17.7455 17.941 17.6758C17.7737 17.6061 17.5943 17.5701 17.4131 17.5698C17.2318 17.5696 17.0523 17.605 16.8848 17.6742C16.7173 17.7434 16.5651 17.845 16.4369 17.973L14.0409 20.365C13.4823 20.9164 12.731 21.2287 11.9461 21.2358C11.1613 21.2429 10.4045 20.9442 9.83595 20.403L9.81595 20.3841L5.53994 16.191C4.88794 15.551 4.56794 14.722 4.59194 13.928C4.5967 13.752 4.61881 13.5768 4.65794 13.405C4.75846 12.9694 4.97195 12.5679 5.27694 12.241L9.12995 8.11405C10.1879 6.98005 12.3339 6.84405 13.5599 7.83605L17.0609 10.667C17.6539 11.147 18.5219 11.054 19.0009 10.46C19.2306 10.1747 19.3377 9.80998 19.2989 9.44578C19.2601 9.08158 19.0785 8.74762 18.7939 8.51705L15.2939 5.68605C14.4939 5.03905 13.5279 4.64105 12.5199 4.48405L14.5349 2.32605C14.7207 2.12633 14.8433 1.87618 14.8873 1.60702C14.9314 1.33786 14.8949 1.06169 14.7825 0.813179C14.6701 0.564672 14.4868 0.354914 14.2556 0.210246C14.0244 0.0655789 13.7556 -0.00754814 13.4829 4.89053e-05ZM10.6169 12.815C10.4356 12.815 10.2559 12.8508 10.0884 12.9203C9.92082 12.9898 9.7686 13.0916 9.64043 13.2199C9.51226 13.3483 9.41065 13.5007 9.34142 13.6683C9.27218 13.836 9.23668 14.0157 9.23695 14.197C9.23668 14.3784 9.27218 14.5581 9.34142 14.7258C9.41065 14.8934 9.51226 15.0458 9.64043 15.1741C9.7686 15.3025 9.92082 15.4043 10.0884 15.4738C10.2559 15.5433 10.4356 15.579 10.6169 15.579H20.7899C20.9713 15.579 21.151 15.5433 21.3185 15.4738C21.4861 15.4043 21.6383 15.3025 21.7665 15.1741C21.8946 15.0458 21.9962 14.8934 22.0655 14.7258C22.1347 14.5581 22.1702 14.3784 22.1699 14.197C22.1702 14.0157 22.1347 13.836 22.0655 13.6683C21.9962 13.5007 21.8946 13.3483 21.7665 13.2199C21.6383 13.0916 21.4861 12.9898 21.3185 12.9203C21.151 12.8508 20.9713 12.815 20.7899 12.815H10.6169Z" fill="#0F0F0F" fill-opacity="0.8"/>
</g>
<defs>
<clipPath id="clip0_41_437">
<rect width="24" height="24" fill="white"/>
</clipPath>
</defs>
</svg>
